<?xml version="1.0" ?><svg enable-background="new 0 0 32 32" id="Layer_1" version="1.1" viewBox="0 0 32 32" xml:space="preserve" xmlns="http://www.w3.org/2000/svg" xmlns:xlink="http://www.w3.org/1999/xlink"><g id="Layer_4_copy_4"><g><path d="M16,32c8.837,0,16-7.163,16-16S24.837,0,16,0S0,7.163,0,16S7.163,32,16,32z M16,0.75    c8.409,0,15.25,6.841,15.25,15.25S24.409,31.25,16,31.25S0.75,24.409,0.75,16S7.591,0.75,16,0.75z" fill="#414753"/><path d="M16,29.57c7.495,0,13.57-6.076,13.57-13.57S23.495,2.43,16,2.43S2.43,8.505,2.43,16S8.505,29.57,16,29.57z     M16,3.18c7.069,0,12.82,5.751,12.82,12.82S23.069,28.82,16,28.82S3.18,23.069,3.18,16S8.931,3.18,16,3.18z" fill="#414753"/><path d="M12.762,19.692c0,0.701,0.092,1.466,0.239,1.834c0.147,0.37,0.332,0.699,0.712,1.027    c0.381,0.327,0.682,0.523,1.221,0.7c0.59,0.195,1.214,0.266,1.859,0.266c0.618,0,1.192-0.062,1.723-0.186    c0.532-0.124,1.263-0.372,1.901-0.771V20.17c-0.757,0.588-1.661,0.852-2.437,0.852c-0.437,0-0.824-0.102-1.165-0.306    c-0.257-0.152-0.432-0.353-0.526-0.605c-0.094-0.253-0.179-0.966-0.179-1.855v-3.828h3.828v-2.392H16.11V8.21h-2.392    c0,0.788-0.028,1.415-0.289,1.928c-0.259,0.512-0.603,0.951-1.034,1.318c-0.428,0.364-0.934,0.537-1.547,0.582v2.392h1.914    C12.762,14.43,12.762,19.692,12.762,19.692z" fill="#414753"/></g></g></svg>